<mxfile host="app.diagrams.net" modified="2022-02-06T12:19:30.884Z" agent="5.0 (Windows NT 10.0; Win64; x64) AppleWebKit/537.36 (KHTML, like Gecko) Chrome/98.0.4758.82 Safari/537.36" etag="np5BU7GdsfzMNXil14AS" version="16.5.3" type="github">
  <diagram id="iIcusg5JNzbfhs1VfL_O" name="Page-1">
    <mxGraphModel dx="1662" dy="762" grid="1" gridSize="10" guides="1" tooltips="1" connect="1" arrows="1" fold="1" page="1" pageScale="1" pageWidth="827" pageHeight="1169" math="0" shadow="0">
      <root>
        <mxCell id="0" />
        <mxCell id="1" parent="0" />
        <mxCell id="ivAd0Q7VCujZjkuh6Txo-5" style="edgeStyle=orthogonalEdgeStyle;rounded=0;orthogonalLoop=1;jettySize=auto;html=1;" edge="1" parent="1" source="ivAd0Q7VCujZjkuh6Txo-1" target="ivAd0Q7VCujZjkuh6Txo-3">
          <mxGeometry relative="1" as="geometry" />
        </mxCell>
        <mxCell id="ivAd0Q7VCujZjkuh6Txo-1" value="Boshlash" style="ellipse;whiteSpace=wrap;html=1;" vertex="1" parent="1">
          <mxGeometry x="354" y="50" width="120" height="80" as="geometry" />
        </mxCell>
        <mxCell id="ivAd0Q7VCujZjkuh6Txo-6" style="edgeStyle=orthogonalEdgeStyle;rounded=0;orthogonalLoop=1;jettySize=auto;html=1;" edge="1" parent="1" source="ivAd0Q7VCujZjkuh6Txo-3">
          <mxGeometry relative="1" as="geometry">
            <mxPoint x="585" y="310" as="targetPoint" />
          </mxGeometry>
        </mxCell>
        <mxCell id="ivAd0Q7VCujZjkuh6Txo-10" value="" style="edgeStyle=orthogonalEdgeStyle;rounded=0;orthogonalLoop=1;jettySize=auto;html=1;" edge="1" parent="1" source="ivAd0Q7VCujZjkuh6Txo-3">
          <mxGeometry relative="1" as="geometry">
            <mxPoint x="220" y="310" as="targetPoint" />
          </mxGeometry>
        </mxCell>
        <mxCell id="ivAd0Q7VCujZjkuh6Txo-15" style="edgeStyle=orthogonalEdgeStyle;rounded=0;orthogonalLoop=1;jettySize=auto;html=1;exitX=0.5;exitY=1;exitDx=0;exitDy=0;entryX=0.5;entryY=0;entryDx=0;entryDy=0;" edge="1" parent="1" source="ivAd0Q7VCujZjkuh6Txo-3" target="ivAd0Q7VCujZjkuh6Txo-14">
          <mxGeometry relative="1" as="geometry" />
        </mxCell>
        <mxCell id="ivAd0Q7VCujZjkuh6Txo-3" value="sura:yoki oyat:" style="rhombus;whiteSpace=wrap;html=1;" vertex="1" parent="1">
          <mxGeometry x="356" y="190" width="116" height="110" as="geometry" />
        </mxCell>
        <mxCell id="ivAd0Q7VCujZjkuh6Txo-7" value="Har ikkishi bo&#39;lsa" style="text;html=1;align=center;verticalAlign=middle;resizable=0;points=[];autosize=1;strokeColor=none;fillColor=none;" vertex="1" parent="1">
          <mxGeometry x="474" y="220" width="110" height="20" as="geometry" />
        </mxCell>
        <mxCell id="ivAd0Q7VCujZjkuh6Txo-8" value="sura-&amp;gt;&lt;br&gt;oyat-&amp;gt;" style="rounded=0;whiteSpace=wrap;html=1;" vertex="1" parent="1">
          <mxGeometry x="530" y="310" width="120" height="60" as="geometry" />
        </mxCell>
        <mxCell id="ivAd0Q7VCujZjkuh6Txo-12" value="sura" style="text;html=1;align=center;verticalAlign=middle;resizable=0;points=[];autosize=1;strokeColor=none;fillColor=none;" vertex="1" parent="1">
          <mxGeometry x="270" y="230" width="40" height="20" as="geometry" />
        </mxCell>
        <mxCell id="ivAd0Q7VCujZjkuh6Txo-13" value="sura&lt;br&gt;all_&amp;gt;oyat" style="rounded=0;whiteSpace=wrap;html=1;" vertex="1" parent="1">
          <mxGeometry x="160" y="310" width="120" height="60" as="geometry" />
        </mxCell>
        <mxCell id="ivAd0Q7VCujZjkuh6Txo-14" value="oyat" style="rounded=0;whiteSpace=wrap;html=1;" vertex="1" parent="1">
          <mxGeometry x="354" y="370" width="120" height="60" as="geometry" />
        </mxCell>
      </root>
    </mxGraphModel>
  </diagram>
</mxfile>
